<?xml version="1.0" encoding="UTF-8" standalone="no"?><!-- Generator: Gravit.io --><svg xmlns="http://www.w3.org/2000/svg" xmlns:xlink="http://www.w3.org/1999/xlink" style="isolation:isolate" viewBox="0 0 512 512" width="512pt" height="512pt"><defs><clipPath id="_clipPath_UYkqDFhXqb6brNBYZNrL6xgmODKG2xO9"><rect width="512" height="512"/></clipPath></defs><g clip-path="url(#_clipPath_UYkqDFhXqb6brNBYZNrL6xgmODKG2xO9)"><clipPath id="_clipPath_GaXxfiYgkC6weBhfEsPTZtmeoWeEZp2t"><rect x="0" y="0" width="512" height="512" transform="matrix(1,0,0,1,0,0)" fill="rgb(255, 231, 46)"/></clipPath><g clip-path="url(#_clipPath_GaXxfiYgkC6weBhfEsPTZtmeoWeEZp2t)"><g><g><g opacity="0"><path d=" M 0 0 L 512 0 L 512 512 L 0 512 L 0 0 L 0 0 Z " fill="rgb(0,0,0)"/></g></g><path d=" M 103.432 17.844 C 102.314 17.849 101.198 17.876 100.084 17.924 C 97.537 18.034 95.001 18.258 92.48 18.602 C 72.313 21.349 53.322 32.269 40.156 52.272 C 15.543 89.672 42.35 150.297 96.781 150.297 C 97.317 150.297 97.839 150.285 98.364 150.275 L 98.364 150.979 L 158.929 150.979 C 148.171 182.973 128.631 217.575 106.481 252.409 C 104.319 255.809 102.227 259.287 100.191 262.815 L 135.069 298.548 L 78.806 307.971 C 46.078 393.937 51.386 490.045 127.083 490.045 L 127.083 490.043 L 136.393 490.109 C 160.223 489.539 183.125 485.811 197.718 477.222 C 201.892 474.764 205.348 471.985 208.185 468.802 L 175.739 468.802 C 155.409 474.752 134.939 461.862 128.343 442.88 C 119.387 417.11 135.863 390.52 160.21 382.428 C 166.013 380.498 171.933 379.594 177.775 379.594 L 177.775 379.188 L 356.105 379.188 C 355.535 334.785 372.455 289.063 405.289 253.188 C 429.244 227.012 447.319 192.564 456.589 158.342 L 415.364 133.41 L 453.636 126.504 L 410.266 100.697 L 410.261 100.697 L 410.263 100.695 L 410.265 100.697 L 462.392 91.847 C 457.16 52.713 433.552 23.734 385.022 23.734 C 341.14 32.26 222.11 35.29 149.34 28.496 C 134.452 21.733 118.793 17.773 103.432 17.844 Z  M 103.896 36.547 C 117.033 36.59 131.303 40.351 145.143 47.177 L 145.176 47.107 C 149.843 51.842 153.718 56.844 156.856 62.092 L 82.92 62.092 L 93.494 76.872 C 104.102 91.702 113.297 108.862 114.584 118.896 C 115.227 123.913 114.474 126.063 112.77 127.732 C 111.065 129.402 106.542 131.607 96.78 131.607 C 56.193 131.607 39.902 86.655 55.768 62.547 C 66.238 46.64 79.582 39.22 95.002 37.12 C 97.892 36.725 100.865 36.537 103.896 36.547 Z  M 118.5 80.78 L 164.78 80.78 C 169.055 96.514 168.436 113.85 164.236 132.29 L 131.52 132.29 C 133.42 127.263 133.788 121.716 133.12 116.52 C 131.593 104.607 125.715 92.455 118.5 80.78 Z  M 220.053 397.875 C 226.493 404.715 231.245 413.185 233.423 422.789 C 237.22 439.525 236.515 453.997 231.656 465.993 C 227.13 477.168 219.08 485.783 209.366 491.993 L 446.556 491.993 C 461.004 491.993 471.443 486.315 478.756 477.675 C 486.068 469.035 489.956 457.161 489.461 445.323 C 489.275 440.85 488.483 436.41 487.054 432.143 L 417.144 423.938 L 459.161 403.41 C 450.841 399.968 440.521 397.873 427.786 397.873 L 220.053 397.873 L 220.053 397.875 L 220.053 397.875 Z  M 177.385 398.381 C 176.233 398.378 175.079 398.429 173.928 398.534 C 171.295 398.776 168.672 399.309 166.104 400.164 C 150.994 405.184 140.766 421.704 145.994 436.747 C 149.667 447.317 161.341 454.457 171.648 450.685 L 173.203 450.115 L 216.557 450.115 C 217.503 443.755 217.311 436.233 215.199 426.923 C 211.489 410.565 194.656 398.44 177.384 398.383 L 177.385 398.381 L 177.385 398.381 Z " fill-rule="evenodd" fill="rgb(255, 231, 46)"/></g></g></g></svg>