<?xml version="1.0" encoding="UTF-8" standalone="no"?>
<svg
   xmlns:dc="http://purl.org/dc/elements/1.1/"
   xmlns:cc="http://creativecommons.org/ns#"
   xmlns:rdf="http://www.w3.org/1999/02/22-rdf-syntax-ns#"
   xmlns:svg="http://www.w3.org/2000/svg"
   xmlns="http://www.w3.org/2000/svg"
   xmlns:sodipodi="http://sodipodi.sourceforge.net/DTD/sodipodi-0.dtd"
   xmlns:inkscape="http://www.inkscape.org/namespaces/inkscape"
   viewBox="0 0 512 512"
   version="1.1"
   id="svg6"
   sodipodi:docname="bow-arrow.svg"
   inkscape:version="0.92.5 (2060ec1f9f, 2020-04-08)">
  <metadata
     id="metadata12">
    <rdf:RDF>
      <cc:Work
         rdf:about="">
        <dc:format>image/svg+xml</dc:format>
        <dc:type
           rdf:resource="http://purl.org/dc/dcmitype/StillImage" />
      </cc:Work>
    </rdf:RDF>
  </metadata>
  <defs
     id="defs10" />
  <sodipodi:namedview
     pagecolor="#ffffff"
     bordercolor="#666666"
     borderopacity="1"
     objecttolerance="10"
     gridtolerance="10"
     guidetolerance="10"
     inkscape:pageopacity="0"
     inkscape:pageshadow="2"
     inkscape:window-width="1920"
     inkscape:window-height="1016"
     id="namedview8"
     showgrid="false"
     inkscape:zoom="0.4609375"
     inkscape:cx="256"
     inkscape:cy="256"
     inkscape:window-x="0"
     inkscape:window-y="27"
     inkscape:window-maximized="1"
     inkscape:current-layer="svg6" />
  <path
     d="M0 0h512v512H0z"
     id="path2"
     style="fill:none" />
  <path
     fill="#fff"
     d="M331.734 20.443a4.421 4.421 0 0 0-1.802.327c-27.736 11.543-47.295 57.495-29.899 76.671 33.52 38.946 72.835 55.573 90.147 128.434 2.607 20.15 1.218 40.094 0 60.25-17.312 72.861-56.627 89.488-90.147 128.434-17.396 19.176 2.163 65.128 29.899 76.671 9.038 3.762 28.025-26.165 21.752-25.209-16.34 2.491-37.8-20.941-28.387-28.93 38.47-32.65 105.49-100.055 100.277-135.552-2.211-15.057-9.35-30.36-15.574-45.539 6.225-15.18 13.363-30.482 15.574-45.54 5.214-35.496-61.806-102.901-100.277-135.552-9.412-7.988 12.047-31.42 28.387-28.93 5.881.897-10.44-25.35-19.95-25.535zM152 24.23l-21.441 53.602L152 99.273l21.441-21.441zm-9 91.497v296.546l9-9 9 9V115.727l-2.637 2.636-6.363 6.364zm160 9.847v260.824l18-17.53V143.104zM152 428.727l-23 23v38.546l23-23 23 23v-38.546z"
     id="path4" />
</svg>
