<?xml version="1.0" encoding="UTF-8" standalone="no"?><!-- Generator: Gravit.io --><svg xmlns="http://www.w3.org/2000/svg" xmlns:xlink="http://www.w3.org/1999/xlink" style="isolation:isolate" viewBox="0 0 512 512" width="512pt" height="512pt"><defs><clipPath id="_clipPath_sSIkXNpRXjJjHNySpwJdVcZm0dUEdmTx"><rect width="512" height="512"/></clipPath></defs><g clip-path="url(#_clipPath_sSIkXNpRXjJjHNySpwJdVcZm0dUEdmTx)"><clipPath id="_clipPath_mxu2mTEBSkYws1Ug8fDhbQFMkIF2I3bs"><rect x="0" y="0" width="512" height="512" transform="matrix(1,0,0,1,0,0)" fill="rgb(255, 231, 46)"/></clipPath><g clip-path="url(#_clipPath_mxu2mTEBSkYws1Ug8fDhbQFMkIF2I3bs)"><g><g><g opacity="0"><path d=" M 0 0 L 512 0 L 512 512 L 0 512 L 0 0 L 0 0 Z " fill="rgb(0,0,0)"/></g></g><path d=" M 230.125 18.156 L 230.125 247 L 279.438 247 L 279.438 18.156 L 230.125 18.156 L 230.125 18.156 L 230.125 18.156 Z  M 78.812 21.438 L 62.812 158.344 C 111.519 188.456 160.449 206.187 211.437 211.438 L 211.437 33.125 C 167.193 31.303 122.977 27.235 78.812 21.437 L 78.812 21.438 L 78.812 21.438 Z  M 428.25 21.718 C 384.852 28.532 341.466 32.365 298.125 33.688 L 298.125 208.688 C 344.857 201.23 393.941 184.313 446.563 157.844 L 428.25 21.72 L 428.25 21.718 L 428.25 21.718 Z  M 426.312 188.25 C 381.838 208.097 339.252 221.086 298.125 227.22 L 298.125 247 L 335.156 247 L 335.156 390.188 L 298.125 390.188 L 298.125 398.906 C 298.125 433.316 277.609 454.99 254.875 455.186 C 232.141 455.386 211.437 433.846 211.437 398.906 L 211.437 390.186 L 183.781 390.188 L 174.438 390.188 L 174.438 247 L 211.439 247 L 211.439 229.812 C 167.665 225.648 125.299 212.955 83.752 191.75 C 88.792 284.44 87.412 377.12 78.689 469.813 C 196.091 501.86 313.477 500.815 430.877 469.813 C 424.024 375.955 421.654 282.107 426.314 188.25 L 426.312 188.25 L 426.312 188.25 Z  M 193.125 265.688 L 193.125 371.5 L 316.47 371.5 L 316.47 265.687 L 193.124 265.687 L 193.125 265.688 L 193.125 265.688 Z  M 213.595 283.844 L 296 283.844 L 296 351.344 L 213.594 351.344 L 213.594 283.844 L 213.595 283.844 L 213.595 283.844 Z  M 232.281 302.531 L 232.281 332.657 L 277.313 332.657 L 277.313 302.53 L 232.283 302.53 L 232.281 302.531 L 232.281 302.531 Z  M 230.126 390.189 L 230.126 398.907 C 230.126 427.137 243.446 436.599 254.72 436.501 C 265.99 436.403 279.438 426.483 279.438 398.907 L 279.438 390.187 L 230.125 390.189 L 230.126 390.189 L 230.126 390.189 Z " fill="rgb(255, 231, 46)"/></g></g></g></svg>