<?xml version="1.0" encoding="UTF-8" standalone="no"?><!-- Generator: Gravit.io --><svg xmlns="http://www.w3.org/2000/svg" xmlns:xlink="http://www.w3.org/1999/xlink" style="isolation:isolate" viewBox="0 0 512 512" width="512pt" height="512pt"><defs><clipPath id="_clipPath_x3mC3tlKPeBU224i967dJ15JVY14SS7g"><rect width="512" height="512"/></clipPath></defs><g clip-path="url(#_clipPath_x3mC3tlKPeBU224i967dJ15JVY14SS7g)"><clipPath id="_clipPath_LjSZ28ggO4AJ8YVimzLoXoLxcV7DVZ6Z"><rect x="0" y="0" width="512" height="512" transform="matrix(1,0,0,1,0,0)" fill="rgb(255, 231, 46)"/></clipPath><g clip-path="url(#_clipPath_LjSZ28ggO4AJ8YVimzLoXoLxcV7DVZ6Z)"><g><g><g opacity="0"><path d=" M 0 0 L 512 0 L 512 512 L 0 512 L 0 0 L 0 0 Z " fill="rgb(0,0,0)"/></g></g><path d=" M 329.5 29.12 L 321.4 40.52 L 359 67.16 L 367.1 55.72 L 329.5 29.12 L 329.5 29.12 Z  M 241.5 34.16 L 265.7 79.52 L 267.5 80.81 L 282.3 40.45 L 241.5 34.16 L 241.5 34.16 Z  M 299.1 46.79 L 282.7 91.59 L 323.4 120.4 L 358.7 88.86 C 357.8 88.28 356.8 87.67 355.9 87.02 L 299.1 46.79 L 299.1 46.79 Z  M 59.83 48.56 L 70.67 94.39 L 100.3 96.99 L 103 67.36 L 59.83 48.56 L 59.83 48.56 Z  M 470.9 75.41 C 465.3 80.12 458.7 84 451.4 87.15 C 456.4 133.6 436.7 170.6 406.2 196.9 C 379.7 219.8 345.3 235.3 311.2 244.8 C 308.7 249.6 306.2 254 303.8 257.9 C 345.3 263.3 397 236.7 433 197.9 C 452.8 176.6 467.8 152 474.1 128.7 C 479.3 109.3 478.8 91.28 470.9 75.41 L 470.9 75.41 L 470.9 75.41 Z  M 119.6 84.12 L 116.6 116.6 L 84.25 113.7 L 310.8 384.7 L 330.8 368 L 346.1 355.2 L 119.6 84.12 L 119.6 84.12 Z  M 434 93.09 C 429.8 94.09 425.5 95.09 421.2 95.79 C 406.3 98.29 391.1 98.89 377.7 96.09 L 336.7 132.7 C 340.7 139.7 341.7 148.4 341.2 157.2 C 340.6 169.8 336.9 183.9 331.9 198.1 C 328.9 206.4 325.6 214.7 322 222.7 C 348.9 213.5 374.6 200.4 394.5 183.3 C 420.7 160.5 437 131.7 434 93.09 L 434 93.09 L 434 93.09 Z  M 274 107.4 L 222.8 179.6 L 253.4 216.1 L 311.6 134 L 274 107.4 L 274 107.4 Z  M 173.8 248.8 L 34.53 445.2 L 72.06 471.8 L 204.3 285.3 L 173.8 248.8 L 173.8 248.8 Z  M 406.8 328 L 273.3 439.5 L 292.5 462.6 L 426 351 L 406.8 328 L 406.8 328 Z  M 388.5 405.9 L 353.2 435.3 L 392.9 482.9 L 428.2 453.5 L 388.5 405.9 L 388.5 405.9 Z " fill="rgb(255, 231, 46)"/></g></g></g></svg>