<?xml version="1.0" encoding="UTF-8" standalone="no"?><!-- Generator: Gravit.io --><svg xmlns="http://www.w3.org/2000/svg" xmlns:xlink="http://www.w3.org/1999/xlink" style="isolation:isolate" viewBox="0 0 512 512" width="512pt" height="512pt"><defs><clipPath id="_clipPath_yMzJuGyXe9EeX3gkh8SI9wxsId16XXbx"><rect width="512" height="512"/></clipPath></defs><g clip-path="url(#_clipPath_yMzJuGyXe9EeX3gkh8SI9wxsId16XXbx)"><clipPath id="_clipPath_TK0Tdrguxc5R6WgexNk9JSJzxyxagDN1"><rect x="0" y="0" width="512" height="512" transform="matrix(1,0,0,1,0,0)" fill="rgb(255, 231, 46)"/></clipPath><g clip-path="url(#_clipPath_TK0Tdrguxc5R6WgexNk9JSJzxyxagDN1)"><g><g><g opacity="0"><path d=" M 0 0 L 512 0 L 512 512 L 0 512 L 0 0 L 0 0 Z " fill="rgb(0,0,0)"/></g></g><path d=" M 156.7 25.83 L 89 39.38 C 88.9 97.95 87.26 158.7 45.51 206.6 C 104.4 246.5 189 260.7 247 248.8 L 247 149.8 L 108.3 88.22 L 115.7 71.78 L 256 134.2 L 396.3 71.78 L 403.7 88.22 L 265 149.8 L 265 248.8 C 323 260.7 407.6 246.5 466.5 206.6 C 424.7 158.7 423.1 97.95 423 39.38 L 355.3 25.83 C 342.4 39.71 334.7 53.98 322.4 66.36 C 308.9 79.78 289.5 89 256 89 C 222.5 89 203.1 79.78 189.6 66.36 C 177.3 53.98 169.6 39.71 156.7 25.83 Z  M 53.88 232.9 C 75.96 281 96.07 336.6 102.7 392.8 L 167.7 415.6 C 171.9 362.9 195.9 311.6 231.4 269.5 C 176.3 275.8 108.7 263.7 53.88 232.9 L 53.88 232.9 L 53.88 232.9 Z  M 458.1 232.9 C 403.3 263.7 335.7 275.8 280.6 269.5 C 316.1 311.6 340.1 362.9 344.3 415.6 L 409.5 392.7 C 416.1 335.9 436.1 280.9 458.1 232.9 L 458.1 232.9 L 458.1 232.9 Z  M 256 269 C 215.5 312.1 188.3 366.9 185.3 421.7 L 247 443.3 L 247 336 L 265 336 L 265 443.3 L 326.7 421.7 C 323.6 366.9 296.5 312.1 256 269 Z  M 407.7 412.4 L 297 451.1 L 297 469.9 L 407.2 425.8 C 407.3 421.3 407.5 416.9 407.7 412.4 L 407.7 412.4 L 407.7 412.4 Z  M 104.4 412.5 C 104.7 417 104.8 421.4 104.9 425.9 L 215 469.9 L 215 451.2 L 104.4 412.5 L 104.4 412.5 L 104.4 412.5 Z  M 279 457.4 L 256 465.5 L 233 457.5 L 233 477.1 L 256 486.3 L 279 477.1 L 279 457.4 L 279 457.4 L 279 457.4 Z " fill="rgb(255, 231, 46)"/></g></g></g></svg>